inDegrees=no
num_controls=7
num_derivatives=13
num_iterations=117
num_multipliers=7
num_parameters=0
num_slacks=7
num_states=26
objective=5.803674
objective_accelerations=0.701618
objective_balance=0.011595
objective_effort=0.496927
objective_height=4.500379
objective_ligament=0.093156
solver_duration=980.727551
status=Solve_Succeeded
success=true
DataType=double
version=3
OpenSimVersion=4.4-2022-07-23-0e9fedc
endheader
time	/jointset/ground_pelvis/pelvis_tilt/value	/jointset/ground_pelvis/pelvis_tx/value	/jointset/ground_pelvis/pelvis_ty/value	/jointset/hip_r/hip_flexion_r/value	/jointset/hip_r/hip_adduction_r/value	/jointset/hip_r/hip_rotation_r/value	/jointset/back/lumbar_extension/value	/jointset/patellofemoral_r/patellar_flexion_r/value	/jointset/knee_r/knee_flexion_r/value	/jointset/knee_r/knee_adduction_r/value	/jointset/knee_r/knee_rotation_r/value	/jointset/ankle_r/ankle_angle_r/value	/jointset/subtalar_r/subtalar_angle_r/value	/jointset/ground_pelvis/pelvis_tilt/speed	/jointset/ground_pelvis/pelvis_tx/speed	/jointset/ground_pelvis/pelvis_ty/speed	/jointset/hip_r/hip_flexion_r/speed	/jointset/hip_r/hip_adduction_r/speed	/jointset/hip_r/hip_rotation_r/speed	/jointset/back/lumbar_extension/speed	/jointset/patellofemoral_r/patellar_flexion_r/speed	/jointset/knee_r/knee_flexion_r/speed	/jointset/knee_r/knee_adduction_r/speed	/jointset/knee_r/knee_rotation_r/speed	/jointset/ankle_r/ankle_angle_r/speed	/jointset/subtalar_r/subtalar_angle_r/speed	/forceset/tau_hip_flexion_r	/forceset/tau_hip_adduction_r	/forceset/tau_hip_rotation_r	/forceset/tau_knee_flexion_r	/forceset/tau_ankle_angle_r	/forceset/tau_subtalar_angle_r	/forceset/tau_lumbar_extension	lambda_cid13_p0	lambda_cid14_p0	lambda_cid14_p1	lambda_cid14_p2	lambda_cid14_p3	lambda_cid14_p4	lambda_cid14_p5	/jointset/ground_pelvis/pelvis_tilt/accel	/jointset/ground_pelvis/pelvis_tx/accel	/jointset/ground_pelvis/pelvis_ty/accel	/jointset/hip_r/hip_flexion_r/accel	/jointset/hip_r/hip_adduction_r/accel	/jointset/hip_r/hip_rotation_r/accel	/jointset/back/lumbar_extension/accel	/jointset/patellofemoral_r/patellar_flexion_r/accel	/jointset/knee_r/knee_flexion_r/accel	/jointset/knee_r/knee_adduction_r/accel	/jointset/knee_r/knee_rotation_r/accel	/jointset/ankle_r/ankle_angle_r/accel	/jointset/subtalar_r/subtalar_angle_r/accel	gamma_cid13_p0	gamma_cid14_p0	gamma_cid14_p1	gamma_cid14_p2	gamma_cid14_p3	gamma_cid14_p4	gamma_cid14_p5
0.5	-0.1547296130864305	0.01172836853330057	0.7891826305870098	0.9662163745633923	-0.2188603576687254	-0.1294651643089248	-0.6585874137124959	1.012644159969453	1.012644159969445	-0.07985677835266373	0.1745048520220844	0.2990147967418364	0.1467612045442689	-0.4103915852432048	-0.2137305839481297	-0.5716266725675322	2.052262153344151	-0.04939627302121817	0.2208276572949668	-0.7273962778412607	2.077351389731115	2.07735138973096	-0.4039311128874354	-0.0006885371396582799	0.5328134299074387	0.1397883885423561	-0.2103807726684931	0.01582297069753087	0.01740927890777304	-0.3048232788083287	0.02191273305272515	-0.003520719583584766	0.25044619685349	-5.868868674519711	-35.98147834200338	-8.295670458703727	2.277374834965667	-6.566305231903924	-642.0146563799416	56.9796914511692	0.4740772304098156	0.7106296807799138	-0.4358266275567652	-1.484115423647232	-0.1604750691883138	-0.3245140651592426	2.042600843825053	-1.506866146418956	-1.506866146418945	0.6383235961096367	-0.115676023384822	-0.6780359815449256	-0.3947537945796982	-5.589618436421351e-08	1.554168763467507e-07	2.108268070521543e-06	7.48672210674858e-07	-2.897237163680429e-07	-1.67983686013523e-07	1.489847296664354e-06
0.51	-0.1588089247602031	0.009626753845597589	0.7834459292613682	0.986661646111306	-0.2193627087007955	-0.1272753551571884	-0.6657587735817557	1.03333905033391	1.033339050333865	-0.08386454425633952	0.1744946174459126	0.3043079375758954	0.1481382290708156	-0.405402390737054	-0.2065769811340183	-0.5755817119699738	2.03651528104636	-0.05106940354695678	0.2171563095343221	-0.7067993923245943	2.061348805465451	2.06134880546523	-0.3975516776690732	-0.001338772499870881	0.5257307001502217	0.1355716307260817	-0.21724925283471	0.01653262721427747	0.01768210502500826	-0.3105153579998856	0.0213044360208804	-0.003160003648957555	0.2568430820361242	-5.014446934790538	-36.54539025490018	-8.411257459957392	2.493990981731682	-6.535446208066512	-647.7428380805808	57.43222056702814	0.5216181340515702	0.7199731238834878	-0.3555926473301304	-1.661479573120278	-0.1698352403731104	-0.3852122873618881	2.079677958339662	-1.688626115638161	-1.688626115647921	0.6485893326809162	-0.03654330171821186	-0.7360524538172534	-0.4414516945878453	-4.496163175546965e-08	1.667057742356325e-07	2.050686199571831e-06	7.995399034859602e-07	-2.922524826516651e-07	-1.535195665514313e-07	1.498745773026578e-06
0.52	-0.1628362889742675	0.007597124694467101	0.7776736275315598	1.006941147648253	-0.2198816116773699	-0.1251216129141527	-0.6727218754852862	1.053865580545883	1.053865580545688	-0.08780634863811383	0.1744785113144329	0.3095277189161713	0.1494718230353132	-0.4000020932975344	-0.1993334766336305	-0.5787467534016693	2.019108151137605	-0.0527066619170174	0.2136142755400086	-0.6857446846978202	2.043679359239859	2.043679359239572	-0.3907388085315061	-0.001862848235272158	0.5181415311527072	0.131102276132381	-0.2241177330003996	0.01724228373125703	0.01795493113861332	-0.3162074371918402	0.02069613898905345	-0.002799287713887572	0.2632399672192325	-4.23012938574135	-37.10538394712916	-8.518451874581885	2.700467680496899	-6.539428074768695	-653.4373688473399	57.90754656964504	0.5562978170840271	0.7286100180348213	-0.2778270334075069	-1.816166945839952	-0.153300638052373	-0.2986513118918626	2.134165265846609	-1.840238538404566	-1.840238538404575	0.7250103799501757	-0.09044409842451528	-0.7793238296048138	-0.4452731500639276	-3.372274175034139e-08	1.773822940138674e-07	1.983925299962163e-06	8.47471554121932e-07	-2.935148326174833e-07	-1.390192789528862e-07	1.502676272112155e-06
0.53	-0.1668077206992179	0.005640281254403948	0.7718736215972588	1.027038591045888	-0.2204165911034511	-0.1230027316881614	-0.6794722952206901	1.07420729953235	1.074207299532461	-0.09167825153273489	0.1744576747751652	0.314669187963598	0.1507596605938593	-0.3942216741320079	-0.1920290001417753	-0.5811213570669786	2.000121529433465	-0.05427722353608817	0.2101727105443344	-0.6642854278917396	2.024401886520355	2.024401886519998	-0.3835955729144911	-0.002284500839818871	0.5100767161565555	0.1264341949982386	-0.2307784942707487	0.01799845586232355	0.01814605096600442	-0.3219541917379528	0.01998685773989722	-0.002535570403898429	0.2693879643544264	-3.515897999197999	-37.70782212888804	-8.677261131472099	2.917521033032685	-6.415705560281048	-659.0917752540685	58.28315872274294	0.5983265154522411	0.7322393139163821	-0.1973418549869662	-1.978732124398323	-0.156921009416073	-0.3653625231890951	2.159881061502756	-2.010878805415496	-2.010878805425957	0.716158477584557	-0.01479742634454849	-0.8314425289331623	-0.481823739532402	-2.305875778574804e-08	1.867243538308688e-07	1.915308476126531e-06	8.849020174816246e-07	-2.937603718669994e-07	-1.264110618379696e-07	1.506010913985531e-06
0.54	-0.1707194657227046	0.003756657149090527	0.766053856661932	1.046938403758206	-0.22096687356287	-0.1209179567979521	-0.6860065073533206	1.094348368358314	1.094348368358502	-0.09547728640613526	0.1744332673931708	0.3197277324221812	0.1519999677121769	-0.3880647529998547	-0.1846896096836842	-0.5826985536076484	1.979582014061476	-0.05576726857855956	0.2067930083574163	-0.6425031641450798	2.00354932713315	2.003549327132721	-0.3761652042972368	-0.00257701683938978	0.5015566133878788	0.1215961880864068	-0.237439255540578	0.01875462799382116	0.01833717079023692	-0.3277009462844391	0.0192775764908002	-0.002271853093137408	0.2755359614900774	-2.870643763253594	-38.30762534977897	-8.828513588703851	3.125266287745256	-6.325662112957122	-664.7322832420307	58.6785981231194	0.6315982104097028	0.7355928112816995	-0.1183456084795622	-2.12674567940991	-0.1371973227323857	-0.2862787501397127	2.198766653962474	-2.155255871945037	-2.155255871945019	0.7824369799979386	-0.06461677743083349	-0.8703813841101663	-0.4792583056011106	-1.30308400787678e-08	1.945899898609737e-07	1.844638289317494e-06	9.107141459824551e-07	-2.928809290474155e-07	-1.158961993006846e-07	1.508686309581579e-06
0.55	-0.1745678645126265	0.001946540303571447	0.7602223006392282	1.066625279270267	-0.2215315473507481	-0.1188664834528336	-0.69232135368671	1.114273264291618	1.114273264291764	-0.09920072217165077	0.1744062636239095	0.3246989529712935	0.153191255628891	-0.3815561437302184	-0.1773331080984465	-0.5834785935968838	1.957543464250626	-0.05714756503383552	0.2035250210002689	-0.6204270280608831	1.981183974594462	1.981183974594336	-0.3684798685121942	-0.002821749455879506	0.4926253988515404	0.1166478565005632	-0.2439046056581012	0.01944060125103606	0.01845417902194202	-0.3335045475426494	0.01853278590152218	-0.002034742188019317	0.2814658045636269	-2.293340133913792	-38.91982119638899	-8.989217494774104	3.329635430260323	-6.167145878787789	-670.3179019513769	59.06048292703182	0.6693489667359768	0.7357180495777051	-0.03774662587833055	-2.279823858635869	-0.1352543881313382	-0.3436000019014593	2.217898256247932	-2.314056172873797	-2.314056172828354	0.7681125657464972	-0.003856885725660232	-0.9138463838367533	-0.504260010994602	-3.607873360104206e-09	2.015190393487329e-07	1.775939936969258e-06	9.34065388086115e-07	-2.913422177132463e-07	-1.064197475680944e-07	1.510636695417026e-06
0.5600000000000001	-0.1783494058735701	0.0002099963173916749	0.7543869615302914	1.086084286438926	-0.2221093858194189	-0.1168469982359913	-0.6984142664251288	1.133967130453933	1.133967130453964	-0.1028459984416546	0.1743769214521161	0.3295789903959597	0.1543327323445648	-0.3746932672007356	-0.1699750378158225	-0.5834551708550497	1.934008345371298	-0.05840020473733101	0.2003953827072027	-0.5981164451526776	1.957343372934044	1.95734337293422	-0.3605333052075815	-0.0030446973510836	0.4833199884975473	0.1116339478779739	-0.2503699557752568	0.02012657450817077	0.01857118725216022	-0.3393081488009992	0.01778799531219156	-0.001797631283017856	0.2873956476375178	-1.783177699141998	-39.53060051678386	-9.142795673199888	3.525014162202483	-6.041277324480426	-675.9100286689255	59.4610759871679	0.7024516623793418	0.7359065507587366	0.04234693773430801	-2.426059493105593	-0.1116659723760604	-0.2586089373227646	2.245656018764213	-2.450305696291086	-2.450305696291152	0.8346824839119363	-0.06025983317469157	-0.9452205476413598	-0.492373712949749	5.089152172579438e-09	2.073241849856772e-07	1.709607785973983e-06	9.544635665131704e-07	-2.890123841615749e-07	-9.818938880113803e-08	1.511717069539752e-06
0.5700000000000001	-0.1820606722348151	-0.001453031004052635	0.7485558554767706	1.105300696611258	-0.2226990576438338	-0.1148581679455205	-0.7042830130323855	1.153415388401509	1.153415388401498	-0.1064107122920408	0.1743453596174536	0.334364206603463	0.1554238683291244	-0.3675075949759787	-0.1626364066403333	-0.5826324442236678	1.909036598534529	-0.05951194035276727	0.1973838344554174	-0.5756115992236815	1.932074496476369	1.932074496476397	-0.3523794737637672	-0.003262117266170784	0.4736699013208375	0.1065877326977735	-0.2565612963261879	0.02076869876570644	0.0186044066743547	-0.3451119336175414	0.01698531335702315	-0.001597550488664381	0.2930236837607944	-1.33957007393698	-40.15653432699628	-9.312512948536021	3.719998460727368	-5.820604742264874	-681.3508002831825	59.81832617613211	0.7345153648930177	0.7318868365365266	0.1222561628988333	-2.568264925201673	-0.1074004483588474	-0.3204822548911745	2.256090441000753	-2.600238637595333	-2.600238637617258	0.8104226231760896	-0.001394591990241132	-0.9829390384649306	-0.5111978804485557	1.343946924794978e-08	2.11980252701649e-07	1.641110447337152e-06	9.695487966474821e-07	-2.855000921382566e-07	-9.099241102509342e-08	1.510080254429908e-06
